<?xml version="1.0" standalone="no"?>
<!DOCTYPE svg PUBLIC "-//W3C//DTD SVG 20010904//EN"
 "http://www.w3.org/TR/2001/REC-SVG-20010904/DTD/svg10.dtd">
<svg version="1.0" xmlns="http://www.w3.org/2000/svg"
 width="3500.000000pt" height="3500.000000pt" viewBox="0 0 3500.000000 3500.000000"
 preserveAspectRatio="xMidYMid meet">
<metadata>
© 2021 Alex Van Buren and Nate Sackett. All rights reserved.
Created by potrace 1.14, written by Peter Selinger 2001-2017
</metadata>
<g transform="translate(0.000000,3500.000000) scale(0.100000,-0.100000)"
fill="rgba(0,0,0,.2)" stroke="none">
<path d="M12791 33682 c-35 -48 -66 -96 -69 -107 -3 -11 -15 -36 -27 -55 -13
-19 -46 -78 -75 -130 -29 -52 -67 -115 -85 -140 -18 -25 -54 -85 -80 -135 -27
-49 -58 -103 -70 -120 -19 -27 -75 -153 -75 -170 0 -4 -25 -45 -54 -90 -30
-46 -73 -121 -96 -167 -23 -46 -48 -96 -57 -113 -61 -117 -99 -194 -108 -220
-6 -16 -27 -51 -47 -76 -19 -26 -50 -82 -67 -125 -29 -72 -50 -116 -125 -258
-14 -27 -26 -55 -26 -61 0 -7 -15 -35 -33 -61 -34 -51 -51 -85 -86 -169 -11
-27 -65 -140 -121 -249 -55 -110 -100 -207 -100 -216 0 -9 -4 -20 -9 -26 -18
-18 -110 -201 -134 -264 -13 -36 -40 -96 -59 -135 -20 -38 -43 -96 -52 -128
-9 -32 -32 -78 -50 -102 -19 -24 -42 -65 -51 -92 -10 -26 -37 -89 -61 -139
-24 -50 -56 -127 -73 -173 -17 -45 -44 -106 -62 -134 -17 -28 -42 -79 -54
-112 -13 -33 -41 -96 -63 -140 -22 -44 -50 -111 -62 -150 -12 -38 -36 -101
-52 -140 -17 -38 -57 -146 -89 -240 -33 -93 -65 -178 -73 -190 -7 -11 -18 -38
-25 -60 -7 -22 -16 -49 -21 -60 -38 -86 -244 -762 -254 -835 -4 -25 -20 -101
-36 -170 -71 -308 -69 -295 -76 -525 -4 -185 -3 -228 10 -265 9 -25 16 -68 16
-96 0 -103 57 -203 142 -251 29 -17 82 -41 118 -53 36 -13 69 -27 75 -32 5 -4
19 -8 31 -8 13 0 25 -4 28 -9 3 -5 20 -11 38 -14 18 -3 78 -14 133 -25 205
-41 536 -72 560 -52 19 16 35 4 35 -26 0 -17 -18 -45 -54 -82 -29 -31 -66 -78
-82 -103 -16 -26 -67 -86 -113 -135 -45 -49 -98 -111 -116 -139 -19 -27 -80
-95 -135 -150 -56 -55 -107 -109 -112 -120 -19 -36 -132 -188 -179 -239 -25
-28 -78 -98 -116 -156 -39 -58 -83 -116 -98 -130 -15 -14 -41 -52 -57 -85 -17
-33 -54 -93 -82 -134 -28 -40 -66 -99 -84 -130 -18 -31 -44 -67 -57 -81 -24
-25 -47 -63 -106 -175 -22 -42 -88 -117 -230 -265 -109 -113 -220 -235 -246
-270 -26 -36 -116 -133 -200 -216 -84 -84 -153 -157 -153 -163 0 -6 -41 -55
-90 -107 -50 -53 -105 -117 -122 -143 -17 -25 -41 -55 -54 -66 -86 -76 -187
-246 -203 -345 -4 -25 -15 -62 -24 -84 -13 -29 -17 -70 -17 -173 0 -91 -4
-144 -14 -167 -7 -18 -17 -60 -21 -93 -4 -40 -27 -107 -67 -199 -33 -77 -72
-170 -88 -209 -15 -38 -37 -86 -49 -106 -11 -19 -30 -79 -41 -132 -11 -54 -30
-120 -41 -149 -11 -28 -29 -87 -39 -132 -53 -223 -196 -573 -312 -766 -25 -41
-73 -129 -108 -195 -34 -66 -92 -162 -129 -213 -92 -130 -198 -297 -226 -359
-13 -29 -44 -79 -67 -112 -123 -171 -153 -217 -176 -274 -13 -34 -59 -111
-101 -172 -41 -60 -97 -143 -124 -182 -27 -40 -79 -105 -115 -144 -37 -40 -73
-84 -80 -100 -8 -15 -29 -44 -48 -66 -30 -33 -84 -149 -84 -179 0 -6 -15 -44
-34 -85 -21 -46 -42 -117 -55 -189 -34 -182 -65 -304 -111 -435 -10 -27 -22
-79 -28 -115 -11 -63 -21 -106 -45 -200 -17 -64 -14 -186 5 -251 9 -32 45
-101 81 -155 82 -125 124 -200 146 -261 26 -69 101 -182 152 -226 24 -22 87
-67 139 -100 91 -59 97 -66 141 -145 26 -46 56 -93 67 -105 19 -22 22 -32 40
-153 5 -33 15 -70 21 -83 8 -14 11 -65 9 -154 -3 -105 -8 -143 -25 -183 -11
-28 -23 -72 -27 -97 -4 -26 -11 -49 -17 -52 -19 -12 -69 -125 -69 -155 0 -73
71 -140 148 -140 51 0 86 17 127 60 17 17 45 38 64 46 19 8 54 30 77 49 23 19
53 35 66 35 36 0 154 45 190 72 46 35 93 58 118 58 12 0 35 7 53 17 36 18 139
29 427 44 107 5 209 14 226 19 17 6 107 10 200 10 118 1 176 5 192 13 16 10
38 11 75 5 29 -4 104 -12 168 -17 90 -7 128 -15 172 -35 31 -14 80 -33 109
-42 29 -9 67 -28 85 -40 17 -13 37 -24 43 -24 6 0 31 -9 56 -20 24 -11 63 -29
87 -39 24 -11 71 -40 105 -65 34 -25 64 -46 66 -46 2 0 42 -22 88 -49 45 -27
108 -57 138 -66 30 -10 69 -28 87 -41 46 -35 133 -80 168 -88 17 -4 62 -32
101 -62 39 -30 75 -54 79 -54 4 0 21 -10 38 -22 18 -13 43 -29 57 -37 54 -30
68 -38 157 -99 51 -34 95 -62 99 -62 3 0 18 -8 32 -19 15 -10 43 -23 63 -30
23 -7 56 -34 93 -76 33 -36 87 -81 127 -106 38 -23 85 -54 105 -70 19 -15 48
-30 64 -34 16 -3 48 -23 72 -44 24 -20 72 -58 108 -84 121 -89 158 -122 202
-182 46 -63 203 -215 222 -215 6 0 25 -7 41 -16 17 -9 44 -24 60 -32 17 -9 87
-53 157 -99 69 -46 129 -83 133 -83 3 0 29 -16 58 -35 28 -19 56 -35 61 -35 5
0 36 -20 67 -45 32 -25 60 -45 64 -45 3 0 29 -16 58 -35 28 -19 56 -35 60 -35
5 0 21 -8 35 -19 15 -10 44 -21 66 -24 21 -3 46 -13 55 -20 9 -8 36 -18 61
-22 25 -3 71 -15 103 -26 31 -10 70 -19 87 -19 16 0 52 -9 80 -20 28 -11 74
-20 103 -20 29 0 66 -7 82 -16 46 -24 143 -52 219 -63 37 -5 74 -15 82 -22 11
-9 80 -14 237 -17 155 -3 231 -8 252 -17 79 -35 108 -43 186 -50 46 -4 89 -11
94 -15 6 -4 25 -10 43 -12 l32 -5 0 62 c0 49 6 75 30 121 16 32 30 65 30 72 0
7 11 34 25 60 14 26 25 55 25 65 0 37 39 125 84 192 27 38 52 80 57 93 24 63
104 154 214 245 57 47 57 47 134 47 42 0 92 -5 111 -11 19 -6 67 -14 107 -18
39 -5 89 -17 110 -28 118 -62 121 -64 252 -195 37 -38 83 -73 102 -80 71 -24
104 -65 139 -173 7 -22 19 -49 25 -60 7 -11 18 -44 25 -72 25 -110 97 -168
199 -161 79 6 108 30 193 156 39 59 75 108 79 110 4 2 27 29 51 60 23 31 72
87 108 124 36 37 81 85 102 106 24 27 71 57 140 90 l103 50 140 7 140 7 143
-42 c80 -23 177 -59 219 -81 l75 -40 152 -3 c132 -4 164 -1 256 20 119 28 229
67 280 101 19 13 38 23 43 23 4 0 68 40 142 89 153 103 202 129 300 161 39 13
90 33 115 45 25 12 92 35 150 49 58 15 116 35 130 43 13 9 61 20 108 24 45 4
88 12 95 17 7 5 53 17 102 25 50 9 137 27 195 41 204 48 328 45 520 -13 52
-16 109 -32 125 -35 73 -17 204 -72 253 -108 55 -41 150 -175 180 -253 21 -58
26 -295 9 -515 -13 -182 -14 -186 -47 -239 -34 -55 -38 -70 -59 -216 -7 -44
-18 -111 -26 -150 -7 -38 -16 -95 -19 -125 -8 -84 -65 -260 -95 -300 -46 -59
-115 -178 -198 -340 -44 -85 -93 -175 -110 -200 -38 -55 -153 -265 -153 -279
0 -5 -19 -57 -41 -116 -61 -156 -178 -326 -252 -367 -41 -23 -68 -23 -119 2
-23 11 -47 20 -53 20 -5 0 -19 19 -29 42 -24 57 -18 126 17 171 47 61 78 119
147 272 10 22 23 60 30 85 12 45 77 167 155 290 23 36 60 105 84 154 23 49 50
101 60 115 9 14 26 46 36 71 11 25 51 92 90 150 72 109 110 201 120 295 3 28
12 88 20 135 24 142 36 221 44 297 7 63 14 80 48 125 l40 53 13 185 c8 125 8
199 2 228 -11 45 -80 162 -97 162 -6 0 -26 8 -45 19 -20 10 -62 24 -95 31 -33
6 -94 23 -135 36 -131 44 -221 43 -385 -3 -27 -7 -81 -18 -120 -23 -111 -16
-403 -86 -419 -101 -6 -5 -20 -9 -32 -9 -12 0 -60 -16 -106 -36 -45 -20 -115
-46 -155 -59 -65 -20 -260 -136 -423 -251 -25 -17 -57 -34 -73 -38 -15 -4 -51
-17 -80 -30 -28 -13 -114 -38 -189 -56 -137 -31 -139 -32 -365 -28 l-228 3
-96 48 c-135 67 -267 107 -354 107 -62 0 -79 -5 -160 -44 -50 -25 -103 -48
-118 -51 -32 -8 -134 -116 -143 -150 -3 -14 -10 -25 -15 -25 -5 0 -9 -4 -9 -9
0 -16 -111 -174 -151 -216 -24 -24 -39 -49 -39 -64 0 -23 -20 -103 -42 -166
-5 -16 -14 -96 -18 -177 -7 -140 -9 -150 -38 -195 -37 -60 -58 -152 -72 -313
-11 -124 -27 -214 -58 -320 -9 -32 -17 -109 -20 -185 -2 -75 -10 -140 -17
-155 -7 -14 -16 -68 -20 -120 -8 -113 -18 -170 -50 -270 -23 -73 -33 -127 -55
-280 -8 -53 -24 -102 -54 -165 -24 -49 -49 -108 -56 -130 -18 -57 -41 -99 -99
-185 -29 -41 -59 -86 -68 -100 -82 -124 -108 -169 -152 -260 -63 -129 -109
-213 -144 -264 -15 -21 -31 -55 -37 -75 -5 -20 -25 -62 -43 -92 -19 -31 -49
-100 -68 -155 -29 -85 -42 -107 -90 -159 -39 -41 -73 -93 -106 -160 -50 -102
-97 -177 -155 -251 -46 -57 -183 -184 -245 -226 -69 -47 -103 -74 -103 -82 0
-20 46 -105 70 -131 16 -16 39 -50 52 -75 13 -25 29 -54 35 -65 6 -11 33 -65
58 -119 42 -89 47 -105 43 -156 -3 -44 -11 -66 -37 -103 -28 -38 -117 -110
-156 -126 -5 -2 -28 -19 -49 -37 -21 -18 -55 -39 -75 -45 -20 -6 -40 -15 -46
-19 -5 -4 -28 -13 -50 -20 -22 -7 -61 -25 -88 -41 -26 -16 -50 -29 -53 -29 -4
0 -34 -20 -68 -43 -97 -69 -172 -106 -259 -128 -45 -11 -90 -25 -101 -30 -10
-6 -60 -17 -111 -25 -50 -7 -105 -20 -121 -29 -16 -8 -40 -15 -54 -15 -14 0
-50 -7 -80 -15 -95 -26 -183 -46 -250 -55 -36 -5 -81 -17 -100 -26 -29 -15
-74 -18 -300 -22 -260 -5 -266 -5 -314 -30 -49 -26 -70 -29 -371 -51 -64 -4
-111 -13 -130 -24 -26 -14 -61 -17 -245 -17 -168 0 -221 3 -243 15 -15 8 -52
19 -82 24 -30 6 -65 16 -78 23 -16 9 -111 14 -342 18 -278 4 -324 7 -354 22
-23 12 -57 18 -104 18 -52 0 -78 5 -101 20 -19 11 -60 22 -101 26 -67 6 -125
25 -190 61 -16 9 -73 39 -125 66 -52 27 -114 62 -136 78 -23 16 -64 36 -90 45
-27 9 -74 34 -106 55 -31 22 -60 39 -63 39 -4 0 -19 8 -33 19 -15 10 -58 28
-97 40 -53 16 -88 35 -145 81 -84 67 -143 100 -183 100 -27 0 -145 39 -194 65
-15 8 -43 15 -60 15 -18 0 -50 6 -70 14 -21 8 -60 20 -86 27 -27 6 -65 23 -85
37 -35 24 -166 78 -257 106 -60 19 -75 26 -143 73 -35 24 -69 43 -75 43 -7 0
-32 16 -56 35 -24 19 -49 35 -56 35 -6 0 -29 15 -51 33 -21 18 -55 44 -74 57
-19 12 -58 46 -85 74 -28 28 -67 60 -88 70 -22 10 -63 39 -92 64 -126 111
-158 137 -232 193 -43 32 -85 71 -93 86 -19 35 -198 209 -238 231 -43 24 -232
251 -232 278 0 5 -16 33 -35 62 -62 92 -84 142 -99 226 -8 44 -19 94 -25 109
-19 48 -13 236 9 329 22 92 26 158 9 158 -18 0 -293 -281 -318 -325 -24 -42
-59 -134 -85 -225 -8 -30 -39 -92 -68 -137 -176 -274 -237 -389 -298 -568 -23
-66 -48 -134 -56 -152 -8 -17 -14 -36 -14 -41 0 -6 -16 -43 -35 -83 -19 -41
-35 -82 -35 -92 0 -11 -7 -40 -14 -66 -8 -25 -19 -73 -25 -106 -5 -33 -21 -94
-34 -135 -31 -94 -56 -194 -73 -290 -7 -41 -31 -129 -54 -195 -50 -146 -86
-288 -95 -377 -3 -36 -13 -88 -21 -114 -8 -26 -14 -76 -14 -110 0 -37 -11
-105 -26 -161 -54 -203 -54 -197 -53 -448 1 -294 13 -526 30 -583 11 -34 11
-50 0 -85 -23 -76 -23 -93 -2 -161 19 -61 21 -93 21 -300 0 -184 -3 -243 -16
-286 -9 -30 -18 -104 -21 -164 -5 -101 -3 -114 22 -178 15 -38 44 -95 65 -126
49 -73 357 -383 432 -433 31 -22 60 -44 63 -50 12 -18 263 -179 280 -179 9 0
28 -6 43 -14 15 -7 48 -16 75 -19 26 -4 75 -20 110 -36 35 -16 77 -33 93 -36
16 -4 47 -13 68 -21 22 -9 92 -18 160 -21 108 -5 129 -9 200 -39 44 -19 94
-34 112 -34 18 0 53 -9 79 -20 26 -11 64 -20 84 -20 21 0 62 -8 92 -19 30 -10
71 -21 91 -25 21 -4 63 -19 95 -33 40 -18 84 -28 143 -33 47 -4 138 -21 202
-38 102 -28 133 -32 241 -32 85 0 138 -5 167 -15 57 -20 215 -20 263 0 28 12
80 15 224 15 180 0 193 1 308 32 l120 33 315 5 c199 3 322 9 335 16 11 6 61
21 110 33 50 12 120 31 156 41 36 11 75 20 86 20 12 0 40 9 64 20 27 12 66 20
102 20 31 0 90 9 130 19 93 25 176 41 257 51 36 4 79 13 95 21 17 7 73 16 125
20 97 7 177 20 265 44 28 8 102 19 165 25 63 6 135 18 159 26 25 8 61 14 82
14 37 0 219 58 334 107 75 32 204 73 230 73 11 0 53 16 94 35 52 25 86 35 121
35 26 0 65 6 86 14 22 7 64 17 94 21 31 4 78 20 106 36 34 19 76 32 121 38 38
5 88 18 111 30 49 25 159 66 217 80 82 20 160 52 209 85 28 19 77 42 109 50
31 9 81 23 110 31 30 8 63 15 74 15 11 0 75 27 142 60 67 33 128 60 136 60 20
0 143 57 196 91 25 16 60 34 78 40 18 6 56 27 84 47 29 19 105 61 169 92 64
32 137 72 161 88 24 17 61 33 83 37 86 15 208 60 267 98 34 22 100 53 147 68
47 16 106 40 132 54 30 16 75 29 120 34 40 5 87 14 103 21 44 18 326 25 395
10 33 -7 200 -15 410 -20 285 -7 364 -11 399 -24 54 -20 99 -20 148 -2 21 8
59 17 86 20 77 9 125 42 265 180 120 119 138 133 195 151 34 12 80 31 102 42
22 12 80 34 129 49 87 26 91 29 181 118 51 50 97 100 102 111 6 11 19 52 28
90 10 39 25 86 35 105 18 34 41 105 55 165 7 32 58 106 100 145 15 14 38 41
50 61 13 19 41 56 63 82 41 47 74 130 87 217 4 25 12 54 19 65 7 12 13 104 16
240 5 219 5 220 32 258 18 25 29 57 33 95 4 31 13 75 20 97 11 31 15 153 18
540 4 422 7 508 21 550 9 28 16 60 16 71 0 12 9 41 20 65 13 30 20 66 20 114
0 39 7 95 16 125 8 30 21 91 29 135 8 49 28 113 53 166 22 47 43 106 47 130 4
24 22 78 40 119 17 41 42 107 54 145 23 70 114 267 235 505 35 69 66 137 70
152 10 45 160 342 211 418 56 85 78 92 70 23 -3 -27 -7 -142 -10 -258 -2 -115
-9 -230 -14 -254 -7 -36 -5 -59 15 -124 28 -94 33 -101 90 -126 38 -17 44 -25
58 -71 9 -29 14 -56 11 -59 -2 -4 1 -25 6 -47 6 -21 12 -115 13 -209 2 -123 8
-189 20 -238 10 -38 16 -82 12 -97 -3 -16 1 -54 9 -85 8 -31 15 -81 15 -111 0
-30 7 -68 15 -83 8 -16 19 -58 25 -94 5 -36 19 -85 30 -108 11 -24 20 -64 20
-89 0 -56 20 -131 49 -187 12 -24 35 -85 52 -135 36 -108 132 -296 195 -383
24 -33 52 -71 63 -85 10 -14 31 -44 46 -68 16 -24 45 -55 66 -70 21 -15 78
-63 127 -107 49 -44 104 -89 122 -100 19 -11 77 -46 129 -77 95 -57 195 -108
212 -108 5 0 49 -19 97 -41 106 -51 334 -125 422 -138 36 -5 99 -19 140 -31
41 -12 122 -30 180 -41 58 -11 125 -24 150 -30 25 -6 92 -22 150 -35 58 -12
147 -37 199 -54 52 -16 102 -30 111 -30 9 0 50 -12 91 -26 41 -15 104 -37 141
-49 37 -13 80 -30 95 -39 15 -8 56 -27 91 -41 71 -29 158 -82 187 -115 11 -12
37 -31 58 -41 48 -25 83 -74 161 -228 66 -130 116 -274 116 -332 0 -19 12 -59
26 -89 14 -30 34 -98 44 -150 10 -52 23 -113 28 -135 31 -120 42 -186 42 -237
0 -34 8 -78 20 -108 12 -29 20 -75 20 -108 0 -31 6 -91 12 -132 6 -41 13 -106
14 -145 1 -38 5 -99 8 -135 3 -36 8 -126 12 -200 3 -74 10 -142 15 -151 9 -17
22 -157 21 -219 0 -19 -3 -298 -6 -620 -5 -588 -14 -828 -37 -995 -7 -49 -13
-126 -14 -170 -1 -44 -9 -111 -18 -148 -27 -108 -20 -231 11 -225 15 3 22 14
80 118 36 66 82 159 82 168 0 6 38 82 223 447 20 39 62 124 94 190 66 135 159
320 176 350 6 11 23 47 39 80 16 33 35 71 43 85 9 14 74 142 146 285 72 143
146 289 164 325 19 36 59 115 89 175 89 178 146 289 155 305 5 8 43 85 85 170
42 85 82 166 90 180 8 14 51 102 96 195 125 259 191 397 264 546 36 76 66 144
66 152 0 8 7 20 15 27 8 7 15 18 15 26 0 7 17 50 38 96 22 46 47 103 57 128
10 25 33 77 51 117 19 39 34 75 34 79 0 3 25 66 56 138 31 72 62 147 69 166 7
19 29 73 49 120 19 47 55 144 79 215 25 72 50 144 56 160 17 46 106 324 120
375 7 25 19 60 27 78 8 18 14 41 14 52 0 10 5 22 10 25 5 3 10 19 10 35 0 16
4 31 9 34 5 3 11 20 14 38 6 35 19 88 37 153 23 84 32 122 41 175 11 71 34
200 49 270 24 119 37 412 25 562 -7 79 -17 155 -23 171 -7 15 -19 57 -27 94
-25 109 -66 182 -127 228 -61 45 -267 119 -364 130 -59 6 -223 32 -384 60 -47
8 -161 24 -255 34 -93 11 -192 27 -219 35 -27 8 -74 18 -105 21 -136 16 -362
114 -476 207 -16 14 -41 31 -54 38 -72 37 -285 246 -327 319 -15 25 -41 69
-59 96 -18 28 -49 84 -70 125 -20 41 -54 104 -73 140 -20 36 -35 74 -33 85 2
11 45 63 96 116 62 64 106 120 130 165 45 85 146 256 166 280 20 24 138 111
277 203 64 43 124 86 132 96 8 10 49 43 90 73 101 74 479 458 558 566 35 48
100 160 144 249 73 146 128 236 128 208 0 -16 63 -71 81 -71 9 0 36 -14 60
-32 62 -45 317 -178 419 -218 29 -11 84 -35 123 -54 106 -49 498 -173 572
-181 17 -2 66 -8 110 -14 127 -18 376 -14 480 9 22 4 72 14 110 21 39 7 99 25
135 41 111 50 310 168 328 196 9 14 37 44 61 66 50 45 66 63 142 151 28 33 71
83 96 110 52 58 90 108 169 223 31 45 69 93 83 105 14 12 37 38 50 57 92 133
245 280 343 330 90 46 231 80 333 80 83 0 238 -17 280 -30 17 -5 68 -21 115
-35 95 -29 132 -43 238 -92 40 -18 76 -33 80 -33 16 0 308 -152 328 -171 11
-10 26 -19 32 -19 7 0 29 -16 51 -35 21 -19 43 -35 48 -35 5 0 24 -13 43 -30
19 -16 40 -29 46 -30 7 0 49 -28 94 -62 45 -35 102 -75 127 -89 25 -15 50 -34
55 -43 5 -9 26 -25 47 -35 37 -19 53 -32 172 -136 31 -27 82 -70 113 -95 124
-99 210 -174 344 -299 26 -24 62 -55 80 -69 34 -26 233 -216 292 -279 19 -21
51 -51 70 -68 19 -16 87 -82 152 -145 65 -63 133 -129 151 -147 17 -17 43 -46
57 -64 13 -17 39 -41 57 -52 19 -11 47 -38 63 -62 16 -23 80 -93 142 -156 63
-63 129 -134 148 -159 31 -42 65 -78 235 -250 71 -72 103 -89 90 -47 -4 12
-13 56 -21 97 -8 41 -28 118 -44 170 -17 52 -30 106 -30 120 0 31 -21 104 -54
193 -14 37 -26 77 -26 88 0 11 -14 56 -31 99 -17 44 -35 109 -40 144 -5 35
-20 95 -35 133 -29 77 -37 108 -54 208 -7 39 -21 86 -30 105 -10 19 -28 71
-40 115 -12 44 -33 107 -47 140 -14 33 -29 88 -34 123 -5 34 -25 104 -44 153
-19 50 -39 119 -45 153 -5 34 -24 100 -40 147 -17 46 -47 134 -67 194 -19 61
-43 126 -53 145 -10 20 -23 62 -29 94 -12 66 -54 193 -81 246 -26 50 -60 159
-60 189 0 29 -32 126 -57 174 -8 16 -30 77 -50 135 -19 59 -55 149 -80 202
-24 52 -53 132 -64 177 -21 87 -89 266 -120 317 -11 17 -31 66 -44 109 -14 43
-30 88 -37 100 -6 12 -19 49 -29 82 -25 86 -60 168 -154 355 -45 91 -90 189
-100 219 -25 75 -421 829 -455 866 -15 17 -40 55 -55 85 -79 159 -175 309
-242 378 -24 26 -65 79 -90 117 -25 39 -76 100 -112 137 -36 36 -95 96 -131
132 -36 37 -90 81 -120 99 -115 66 -130 71 -225 71 -104 0 -132 -11 -230 -93
-33 -27 -96 -72 -139 -98 -54 -33 -90 -64 -114 -96 -19 -26 -60 -64 -91 -84
-31 -19 -72 -50 -91 -67 -19 -18 -51 -43 -70 -56 -19 -13 -71 -60 -115 -105
-44 -45 -105 -95 -135 -112 -31 -17 -99 -68 -152 -114 -126 -110 -314 -209
-394 -209 -29 0 -81 -9 -117 -20 -36 -11 -90 -20 -119 -19 -29 0 -127 1 -217
0 -90 0 -167 2 -172 4 -13 8 -190 24 -344 31 -102 4 -159 11 -179 21 -19 10
-58 15 -109 15 -62 0 -82 3 -92 16 -8 10 -26 32 -40 50 -25 30 -65 44 -65 22
0 -5 -3 -10 -7 -10 -12 0 -8 132 5 163 7 16 12 40 12 55 0 15 9 56 20 90 11
35 20 82 20 103 0 35 18 119 50 239 5 20 12 115 16 210 4 119 11 193 22 230
15 49 17 122 17 625 0 504 -2 576 -17 625 -9 32 -20 115 -24 195 -4 77 -8 154
-9 170 -3 44 5 59 19 40 11 -15 39 -9 136 33 14 6 70 23 125 37 55 15 145 46
200 70 118 51 185 75 207 75 29 0 273 127 320 166 26 22 99 75 163 119 134 92
265 226 347 355 19 30 42 61 51 69 10 7 17 19 17 26 0 7 9 24 20 38 11 14 29
53 40 86 10 32 26 74 35 92 10 18 26 71 36 118 10 47 23 106 28 131 10 46 27
253 23 280 -1 8 -3 40 -3 70 -1 30 -8 136 -15 235 -24 297 -27 488 -10 590 35
217 87 375 168 518 12 21 61 78 108 126 81 83 95 92 231 159 203 100 255 120
340 132 41 6 98 19 127 30 29 11 72 20 96 20 23 0 65 6 92 14 49 14 120 25
309 46 55 6 129 15 165 20 110 16 193 23 235 21 22 -1 58 3 80 9 22 6 130 14
240 19 110 5 261 12 335 15 320 14 502 17 1139 21 370 2 675 6 678 8 2 3 -7
27 -20 54 -13 26 -32 73 -42 103 -10 30 -28 76 -41 102 -13 26 -24 53 -24 61
0 7 -20 54 -44 104 -43 88 -46 92 -103 119 -32 16 -85 45 -118 65 -34 20 -92
49 -130 64 -38 16 -95 44 -125 64 -30 19 -75 45 -100 58 -25 13 -52 27 -60 33
-8 5 -51 27 -95 48 -84 41 -389 197 -440 225 -16 9 -52 27 -80 40 -27 13 -77
39 -110 57 -33 18 -78 42 -100 53 -22 11 -52 28 -66 38 -48 34 -256 141 -299
154 -14 4 -54 26 -90 50 -36 23 -90 52 -120 64 -30 13 -59 27 -65 31 -14 11
-154 85 -260 139 -49 25 -104 55 -120 67 -17 13 -60 37 -95 55 -73 35 -109 54
-161 85 -19 12 -73 36 -120 54 -46 17 -102 45 -124 61 -49 35 -145 86 -462
243 -72 36 -173 82 -225 102 -51 20 -102 43 -113 50 -11 7 -68 31 -127 53 -58
21 -117 46 -129 54 -26 16 -189 72 -384 132 -66 20 -131 40 -145 45 -59 21
-199 59 -240 65 -25 4 -85 17 -135 30 -198 51 -615 71 -821 40 -245 -37 -239
-36 -456 -147 -289 -150 -295 -154 -436 -298 -165 -170 -237 -289 -313 -519
-76 -232 -89 -301 -89 -493 0 -89 2 -194 4 -231 3 -38 1 -114 -4 -170 -6 -56
-12 -136 -15 -177 -6 -104 -66 -330 -132 -500 -22 -54 -90 -148 -156 -212 -44
-43 -137 -94 -369 -202 -63 -30 -77 -27 -106 16 -51 77 -94 132 -170 214 -46
51 -102 118 -124 150 -22 33 -55 75 -72 94 -18 19 -48 55 -66 80 -19 25 -63
79 -100 120 -36 41 -88 107 -115 145 -26 39 -103 126 -170 195 -66 69 -134
148 -149 175 -43 75 -343 374 -445 442 -49 33 -94 72 -110 95 -14 22 -44 61
-66 87 l-39 46 41 -39 42 -39 31 32 c16 18 30 39 30 46 0 6 18 45 39 86 22 41
58 111 81 156 22 45 45 85 51 88 5 4 9 15 9 27 0 11 9 32 19 47 27 38 134 253
164 331 14 36 38 103 52 150 15 47 31 96 36 110 45 125 67 346 50 506 -9 86
-17 116 -55 198 -89 192 -196 365 -278 453 -43 45 -78 88 -78 94 0 6 -39 51
-87 99 -49 48 -117 122 -153 165 -36 43 -99 113 -140 155 -41 42 -91 94 -111
116 -20 21 -54 55 -75 75 -65 61 -153 165 -193 226 -21 32 -58 75 -83 95 -29
24 -63 69 -98 130 -30 51 -64 107 -77 124 -12 17 -30 50 -38 75 -9 24 -23 60
-32 79 -21 43 -24 252 -5 287 7 13 17 49 23 80 10 52 27 94 118 283 18 36 54
97 81 135 28 39 50 75 50 81 0 5 14 23 31 40 17 16 38 43 46 59 17 32 38 60
120 158 29 34 74 88 100 120 66 80 137 157 283 307 69 70 137 141 151 156 14
16 63 63 109 104 159 142 316 289 361 337 15 15 73 69 129 118 99 86 180 160
316 290 34 33 97 92 139 130 42 39 118 108 169 155 50 47 110 101 131 120 22
19 50 46 62 60 12 14 74 72 138 130 64 58 134 126 156 152 l40 47 -145 72
-144 73 -50 -27 c-27 -15 -81 -33 -121 -42 -39 -8 -89 -24 -110 -34 -21 -11
-60 -25 -87 -32 -27 -7 -60 -18 -74 -25 -14 -7 -55 -18 -90 -24 -36 -6 -104
-29 -152 -51 -61 -28 -108 -42 -160 -48 -54 -6 -94 -19 -153 -48 -44 -22 -111
-48 -150 -58 -38 -9 -118 -39 -176 -66 -80 -37 -117 -49 -154 -49 -54 0 -150
-32 -254 -85 -49 -24 -90 -37 -134 -41 -68 -7 -127 -26 -227 -73 -36 -17 -74
-31 -85 -31 -11 0 -87 -32 -170 -71 -124 -59 -170 -75 -268 -95 -92 -19 -140
-35 -217 -74 -54 -27 -118 -52 -142 -55 -97 -14 -148 -31 -280 -96 -76 -38
-142 -69 -147 -69 -33 0 -188 -62 -310 -123 -80 -41 -162 -77 -182 -81 -21 -3
-50 -13 -67 -21 -16 -9 -56 -20 -88 -26 -40 -7 -128 -45 -274 -118 -367 -184
-909 -469 -1034 -545 -33 -20 -65 -36 -72 -36 -7 0 -56 -41 -110 -90 -73 -67
-129 -106 -213 -153 -63 -34 -137 -83 -165 -108 -28 -25 -76 -59 -106 -77 -57
-32 -86 -58 -182 -164 -233 -256 -233 -256 -290 -447 -28 -98 -30 -111 -20
-170 6 -35 21 -84 35 -110 66 -128 87 -163 119 -203 19 -23 45 -61 58 -83 63
-109 104 -164 146 -199 25 -21 61 -62 80 -92 18 -29 38 -55 44 -59 5 -3 10
-13 10 -21 0 -20 -36 -18 -106 6 -32 12 -89 25 -126 30 -37 6 -109 21 -160 34
-51 14 -115 29 -143 34 -27 5 -83 21 -122 36 -55 20 -91 26 -151 26 -53 0 -98
7 -137 20 -32 11 -74 20 -94 20 -20 0 -56 6 -81 14 -25 7 -119 17 -210 21 -91
3 -187 13 -214 21 -73 21 -1428 21 -1483 0 -22 -9 -98 -17 -181 -21 -80 -4
-166 -13 -195 -22 -66 -19 -198 -10 -242 17 -43 26 -415 148 -735 241 -269 77
-706 218 -765 246 -27 13 -80 34 -116 47 -36 13 -100 46 -143 74 -42 29 -79
52 -81 52 -3 0 -37 19 -75 41 -43 26 -120 92 -208 178 -119 115 -148 150 -190
226 -97 174 -141 276 -162 378 -11 53 -29 120 -40 148 -11 27 -20 69 -20 92 0
24 -6 67 -14 97 -25 98 -45 241 -57 420 -6 96 -13 178 -15 182 -7 11 -6 612 1
748 25 492 44 792 55 840 6 25 22 160 35 300 14 140 30 271 35 290 10 33 22
142 21 185 0 10 4 24 8 30 9 11 20 74 40 239 9 75 7 106 -8 106 -3 0 -35 -39
-70 -88z m2354 -5112 c-11 -5 -29 -9 -40 -9 -17 -1 -17 1 -5 9 8 5 26 9 40 9
23 0 23 -1 5 -9z m6986 -4269 c77 -10 119 -35 143 -85 35 -73 10 -151 -63
-197 -40 -26 -54 -29 -127 -29 -46 0 -86 5 -89 10 -8 13 -257 13 -270 1 -6 -5
-59 -12 -120 -14 -60 -3 -132 -10 -160 -15 -27 -6 -93 -18 -145 -26 -52 -9
-138 -31 -190 -50 -109 -39 -299 -86 -349 -86 -18 0 -54 -7 -80 -15 -75 -23
-169 -45 -195 -45 -27 0 -210 -45 -241 -60 -24 -11 -251 -72 -355 -96 -52 -12
-104 -34 -167 -71 -105 -61 -165 -110 -332 -273 -109 -106 -122 -123 -170
-219 -28 -57 -65 -150 -81 -208 -16 -58 -39 -124 -50 -146 -22 -42 -45 -131
-57 -217 -3 -25 -9 -49 -13 -55 -4 -5 -11 -53 -14 -105 l-6 -95 53 -105 c110
-215 143 -276 165 -307 12 -17 22 -34 22 -38 0 -4 15 -40 34 -80 19 -39 38
-85 41 -101 4 -16 13 -43 20 -59 8 -17 19 -53 26 -80 7 -28 41 -131 77 -230
35 -99 75 -225 89 -280 13 -55 31 -125 38 -155 8 -30 19 -82 25 -115 14 -77
35 -148 76 -255 18 -47 38 -106 44 -133 12 -56 45 -155 70 -212 10 -22 21 -68
25 -102 4 -34 15 -79 26 -100 10 -20 19 -44 19 -51 0 -8 12 -47 26 -86 29 -82
44 -219 44 -424 0 -125 -15 -224 -40 -257 -4 -5 -14 -32 -23 -58 -9 -27 -47
-92 -85 -145 -37 -54 -74 -110 -81 -126 -12 -29 -57 -91 -96 -133 -53 -57 -70
-79 -116 -145 -27 -40 -49 -77 -49 -84 0 -6 -24 -45 -53 -85 -83 -117 -100
-147 -142 -264 l-39 -110 0 -175 c0 -140 4 -186 19 -230 22 -70 51 -117 75
-125 10 -3 53 -37 96 -75 65 -58 88 -72 148 -90 114 -34 152 -50 227 -97 39
-23 73 -43 75 -43 3 0 46 -27 95 -61 106 -71 295 -234 424 -365 50 -50 117
-108 149 -129 33 -20 91 -64 130 -97 39 -32 84 -62 99 -65 16 -3 45 -21 64
-39 20 -19 40 -34 45 -34 25 0 168 -105 203 -149 22 -28 43 -51 46 -51 14 0
159 -153 159 -168 0 -6 4 -12 8 -14 7 -3 39 -50 110 -166 12 -20 27 -48 33
-61 10 -25 56 -81 134 -161 41 -42 135 -184 135 -203 0 -5 32 -57 70 -116 39
-59 70 -110 70 -114 0 -3 17 -30 38 -59 20 -29 51 -72 67 -95 17 -23 35 -42
41 -43 6 0 17 -6 23 -14 7 -8 35 -19 62 -25 27 -6 67 -22 88 -37 25 -16 68
-30 118 -39 94 -17 111 -25 190 -93 39 -34 72 -74 93 -115 18 -34 39 -73 47
-87 18 -34 16 -105 -3 -146 -22 -47 -67 -76 -124 -82 -72 -7 -114 18 -165 97
-24 36 -51 73 -61 82 -11 9 -59 29 -109 44 -49 15 -106 35 -125 45 -19 10 -55
21 -80 25 -49 8 -163 70 -196 107 -31 34 -142 197 -194 286 -25 42 -64 104
-86 137 -22 33 -60 92 -82 132 -23 39 -55 81 -70 92 -15 10 -34 32 -42 48 -8
15 -38 57 -67 91 -28 35 -54 76 -58 90 -14 57 -180 287 -227 316 -14 9 -39 31
-54 49 -29 35 -223 173 -290 207 -23 11 -66 42 -96 68 -80 68 -94 79 -118 92
-42 22 -115 82 -191 155 -41 40 -106 96 -143 124 -85 63 -143 116 -179 164
-15 20 -33 37 -39 37 -6 0 -25 11 -42 23 -17 13 -36 26 -41 28 -6 2 -42 23
-80 46 -39 24 -120 59 -179 78 -82 26 -126 48 -186 90 -43 30 -80 61 -83 69
-3 7 -26 23 -51 36 -46 22 -131 120 -169 195 -42 84 -80 289 -76 420 1 39 -3
83 -10 98 -9 23 -8 33 4 50 8 12 15 41 15 65 0 56 87 317 132 397 19 33 37 67
41 75 7 16 96 150 160 241 21 30 54 77 73 104 39 56 84 144 84 166 0 26 55 97
115 148 127 106 154 223 114 491 -6 35 -14 69 -18 75 -5 5 -16 33 -26 60 -10
28 -24 64 -31 81 -8 18 -20 65 -28 105 -8 41 -25 103 -39 139 -13 36 -27 83
-31 105 -11 57 -46 164 -68 205 -10 19 -18 41 -18 48 0 7 -9 38 -20 69 -11 32
-20 70 -20 86 0 32 -11 77 -40 172 -10 33 -22 80 -26 105 -3 25 -20 81 -36
125 -50 134 -119 337 -134 395 -35 139 -51 189 -67 213 -9 14 -17 31 -17 36 0
10 -35 77 -50 96 -5 6 -21 35 -37 65 -35 67 -54 100 -69 120 -28 36 -96 179
-106 220 -5 25 -12 86 -15 135 -6 100 13 374 29 414 5 14 13 51 18 82 4 31 17
76 29 102 12 25 21 50 21 55 0 4 9 27 20 50 11 22 20 48 20 56 0 43 99 251
170 359 47 72 109 140 241 263 90 84 268 224 285 224 5 0 47 23 94 51 65 40
99 53 145 59 54 7 122 24 375 92 41 11 91 23 111 27 19 4 41 11 47 14 6 4 45
12 86 17 41 5 83 14 93 19 25 14 137 42 208 52 94 12 252 54 337 88 45 18 112
35 164 41 48 6 91 13 96 16 21 13 138 26 348 39 227 13 369 12 491 -4z
m-10987 -465 c19 -8 51 -30 72 -49 22 -19 53 -41 70 -50 18 -9 72 -56 122
-105 126 -125 191 -236 227 -392 15 -63 36 -144 47 -180 12 -41 21 -109 25
-185 3 -66 12 -145 19 -175 8 -30 14 -90 14 -135 0 -44 7 -102 15 -129 9 -31
15 -91 15 -160 0 -86 4 -119 18 -146 16 -33 20 -35 63 -34 37 0 61 9 121 47
74 46 109 82 140 142 53 104 138 234 237 363 31 40 74 101 97 136 69 110 142
155 263 163 l76 5 64 -53 c191 -160 285 -281 322 -414 36 -128 35 -151 -15
-349 -45 -177 -46 -179 -94 -230 -112 -118 -270 -268 -312 -295 -73 -47 -193
-177 -262 -286 -25 -38 -60 -88 -78 -110 -18 -22 -49 -74 -69 -115 -21 -41
-53 -97 -72 -125 -112 -160 -179 -308 -179 -396 0 -40 -62 -264 -102 -364 -21
-56 -23 -75 -24 -270 -2 -213 -5 -233 -39 -205 -12 10 -15 48 -15 208 0 215
-3 197 86 472 19 58 38 140 44 182 17 134 52 213 190 418 20 30 45 77 56 105
10 27 43 81 74 120 31 38 71 95 90 125 19 30 55 78 81 106 25 27 53 63 62 80
13 25 72 72 138 110 21 12 91 78 232 221 l98 100 30 124 c16 68 36 146 45 172
16 46 15 52 -6 135 -28 106 -37 125 -108 226 -62 89 -84 112 -159 162 -29 19
-53 39 -53 43 0 5 -15 19 -34 30 -27 17 -43 20 -82 15 -100 -13 -158 -73 -361
-373 -40 -58 -81 -118 -92 -132 -11 -15 -40 -62 -63 -105 -23 -44 -48 -85 -55
-92 -7 -7 -13 -17 -13 -21 0 -5 -41 -34 -91 -66 -74 -47 -101 -59 -150 -64
-66 -8 -68 -9 -112 -77 -25 -38 -47 -57 -102 -85 l-71 -36 -184 -7 c-110 -4
-205 -13 -234 -22 -27 -8 -68 -14 -90 -14 -58 0 -219 -56 -269 -94 -23 -17
-54 -39 -69 -49 -36 -23 -208 -196 -208 -209 0 -5 -28 -40 -63 -76 -74 -78
-114 -129 -149 -192 -14 -25 -41 -71 -61 -104 -41 -66 -97 -230 -97 -281 0
-36 -82 -249 -106 -276 -8 -9 -30 -52 -48 -95 -99 -233 -137 -288 -208 -299
-24 -3 -63 -13 -88 -20 -25 -8 -97 -19 -160 -24 -117 -11 -156 -17 -312 -52
-72 -16 -131 -20 -326 -22 -213 -2 -240 0 -265 16 -35 23 -84 90 -95 131 -9
32 -51 100 -170 272 -73 107 -108 188 -137 316 -17 72 -17 80 -2 135 10 33 17
69 17 81 0 41 58 170 106 236 27 37 77 98 112 135 34 37 76 96 93 131 17 35
42 78 55 96 33 42 39 89 20 143 -11 31 -16 80 -16 170 0 112 4 137 30 221 16
52 30 109 30 125 0 17 11 82 24 145 52 255 122 458 203 595 46 77 244 279 348
355 33 24 87 69 120 101 79 74 262 168 390 198 50 12 119 30 155 40 143 43
178 51 216 51 22 0 64 9 94 19 30 11 84 22 120 26 36 3 92 12 125 20 154 35
205 45 229 45 14 0 43 6 63 14 58 22 68 24 206 25 89 1 138 -3 161 -13z
m14216 -716 c6 -11 8 -20 6 -20 -3 0 -10 9 -16 20 -6 11 -8 20 -6 20 3 0 10
-9 16 -20z m-9455 -188 c90 -6 121 -12 170 -35 33 -16 103 -42 155 -59 52 -17
112 -39 134 -50 43 -22 156 -60 230 -77 26 -7 91 -32 143 -56 53 -25 100 -45
105 -45 10 0 148 -56 242 -98 33 -15 76 -39 97 -54 21 -15 87 -52 146 -82 60
-30 116 -62 124 -72 7 -9 39 -33 69 -52 30 -20 74 -56 96 -82 23 -25 70 -66
105 -90 110 -79 149 -121 246 -270 52 -80 103 -157 113 -171 50 -72 157 -262
182 -322 15 -37 40 -86 56 -110 16 -23 44 -71 62 -107 18 -36 45 -83 60 -105
60 -89 120 -218 120 -259 0 -24 -28 -124 -65 -236 -36 -107 -70 -224 -76 -259
-14 -92 -43 -188 -73 -247 -14 -28 -33 -82 -41 -119 -11 -44 -56 -147 -126
-289 -61 -122 -130 -270 -154 -331 -75 -188 -164 -388 -193 -432 -104 -160
-220 -286 -295 -321 -26 -12 -69 -37 -95 -56 -69 -50 -154 -90 -266 -125 -54
-18 -108 -37 -118 -42 -11 -6 -50 -15 -86 -20 -36 -5 -96 -19 -135 -31 -65
-19 -85 -20 -301 -15 -194 5 -242 9 -301 26 -82 25 -193 55 -250 69 -107 25
-347 96 -400 118 -33 14 -107 41 -165 60 -118 40 -262 113 -339 171 -28 22
-106 68 -174 103 -67 35 -151 86 -187 113 -36 28 -85 59 -110 70 -25 11 -61
32 -80 47 -19 15 -60 40 -90 55 -30 15 -75 42 -100 60 -25 18 -67 44 -95 58
-85 43 -253 165 -272 198 -11 20 -75 69 -176 136 -148 98 -164 112 -255 220
-128 152 -121 142 -186 267 -40 79 -56 119 -56 148 0 23 23 104 52 187 38 107
53 167 58 226 6 75 29 181 54 250 15 44 149 175 232 228 40 25 110 83 156 130
58 58 106 95 156 122 57 30 96 62 187 157 111 115 148 168 175 253 7 22 23 56
35 75 13 19 26 58 29 87 4 29 18 87 32 130 14 43 29 102 34 131 12 68 44 135
118 242 32 47 81 123 108 168 38 65 71 104 147 172 103 93 117 100 267 135 30
8 109 32 175 55 215 76 215 76 590 52z m9915 -484 c0 -6 -7 -5 -15 2 -8 7 -15
17 -15 22 0 6 7 5 15 -2 8 -7 15 -17 15 -22z m-14714 -816 c62 -45 102 -98
144 -187 43 -94 167 -264 270 -370 79 -81 194 -247 209 -302 6 -21 11 -69 11
-106 0 -47 9 -99 31 -170 l31 -102 5 -315 c4 -270 7 -327 25 -400 29 -123 92
-319 122 -378 14 -28 26 -57 26 -64 0 -8 16 -47 36 -88 20 -41 55 -133 77
-205 l41 -130 0 -460 c1 -347 -2 -470 -12 -500 -7 -22 -19 -76 -27 -120 -15
-84 -109 -292 -180 -399 -51 -76 -164 -202 -210 -233 -22 -14 -71 -55 -109
-90 -38 -35 -96 -80 -129 -100 -83 -50 -285 -142 -327 -148 -19 -3 -57 -12
-84 -20 -55 -17 -210 -19 -272 -5 -23 5 -86 33 -140 62 -93 51 -98 55 -121
108 -28 64 -128 171 -188 202 -22 11 -55 34 -74 51 -19 16 -84 54 -145 83 -98
48 -121 55 -193 61 -134 10 -156 -7 -172 -137 -12 -94 -45 -156 -100 -191 -40
-26 -54 -29 -129 -29 -127 0 -142 11 -261 183 -18 26 -46 86 -62 134 l-29 87
0 322 c0 316 0 323 25 398 14 42 25 84 25 92 0 9 16 52 36 97 20 45 44 114 54
153 10 40 32 98 48 130 16 33 32 73 36 89 4 17 21 60 37 97 16 36 29 77 29 90
0 13 7 48 16 78 8 30 20 78 25 105 13 61 88 296 100 311 5 6 26 58 48 115 21
57 52 132 70 167 33 65 151 413 151 444 0 29 35 113 62 149 14 19 38 58 53 88
15 30 42 76 60 102 18 27 42 74 53 106 11 32 37 96 57 143 20 47 52 127 71
179 40 108 49 126 80 164 13 15 56 92 96 170 l72 142 157 157 c188 190 235
218 360 218 68 0 80 -3 115 -28z m-2527 -2347 c9 -8 27 -23 40 -33 28 -21 46
-108 57 -267 l7 -100 -35 -45 c-29 -39 -40 -45 -75 -48 -31 -2 -47 3 -69 21
-33 27 -91 57 -110 57 -7 0 -24 14 -38 31 -22 26 -26 40 -26 96 0 55 6 78 34
137 19 39 56 92 81 119 38 39 52 47 82 47 20 0 43 -7 52 -15z m5864 -1317 c37
-37 97 -153 103 -200 6 -42 -8 -114 -52 -265 -24 -84 -70 -101 -168 -64 -65
24 -111 63 -137 114 -45 87 -8 244 85 360 30 39 93 76 129 77 10 0 28 -10 40
-22z m12282 -1167 c-3 -17 -11 -34 -17 -37 -8 -5 -9 1 -5 17 4 13 7 35 7 49 0
17 3 21 11 13 7 -7 8 -24 4 -42z m-6810 -5512 c11 -17 2 -18 -19 -3 -17 12
-17 14 -4 14 9 0 20 -5 23 -11z m34 -189 c0 -73 -4 -108 -9 -95 -5 11 -9 72
-9 135 0 73 4 108 9 95 5 -11 9 -72 9 -135z m3547 -42 c-35 -45 -95 -102 -101
-96 -5 5 111 128 121 128 3 0 -6 -15 -20 -32z m-1151 -768 c-28 -12 -37 -12
-30 0 3 6 16 10 28 9 21 0 21 -1 2 -9z"/>
<path d="M8663 15652 c-18 -39 -43 -142 -43 -172 0 -14 -9 -43 -20 -65 -11
-22 -20 -45 -20 -52 0 -8 -16 -55 -35 -105 -20 -50 -40 -120 -44 -154 -5 -34
-15 -72 -21 -84 -7 -13 -18 -59 -26 -103 -8 -44 -18 -85 -23 -91 -6 -6 -13
-36 -17 -66 -7 -55 -43 -179 -68 -235 -8 -16 -17 -59 -21 -95 -4 -36 -12 -76
-17 -90 -19 -49 -46 -156 -58 -230 -6 -41 -16 -91 -21 -111 -16 -65 -12 -95
19 -114 15 -10 40 -33 55 -51 27 -32 123 -85 180 -99 15 -4 53 -31 85 -61 46
-43 64 -54 91 -54 20 0 64 -15 102 -35 77 -39 99 -43 122 -17 14 16 46 102 61
165 4 15 17 51 30 80 40 89 46 107 46 135 0 15 7 41 16 57 9 17 22 58 30 93 7
34 20 91 28 126 7 34 18 78 24 97 6 19 15 63 20 99 5 36 24 96 41 134 18 38
41 113 52 169 14 71 27 111 45 134 14 18 32 57 40 86 9 28 20 56 25 62 5 5 9
23 9 40 0 17 7 58 16 90 8 33 22 95 29 137 8 42 22 89 31 103 9 14 15 27 13
29 -2 2 -35 14 -74 26 -38 13 -79 29 -90 36 -11 8 -26 14 -35 14 -8 0 -46 16
-85 35 -38 19 -94 39 -125 44 -30 5 -68 16 -85 25 -16 9 -43 16 -58 16 -36 0
-177 47 -197 65 -13 12 -17 10 -27 -13z"/>
<path d="M7818 15603 c-29 -13 -37 -24 -42 -51 -6 -41 -102 -240 -127 -265
-18 -17 -25 -38 -47 -142 -23 -107 -45 -191 -58 -223 -8 -18 -14 -48 -14 -68
0 -19 -7 -51 -15 -71 -8 -19 -15 -50 -15 -67 0 -17 -9 -49 -21 -70 -17 -31
-22 -64 -26 -166 l-6 -127 106 -6 c83 -5 122 -13 179 -36 40 -16 99 -34 130
-41 32 -6 61 -12 65 -13 4 -1 11 15 15 36 8 36 50 108 89 152 23 26 65 151 79
235 10 62 37 151 53 178 5 6 14 49 22 95 19 113 79 333 104 382 26 48 28 133
5 181 -35 73 -99 93 -314 100 -102 3 -132 1 -162 -13z"/>
<path d="M7515 15479 c-17 -11 -46 -27 -65 -36 -49 -24 -205 -128 -261 -175
-26 -21 -63 -45 -82 -53 -44 -18 -97 -63 -97 -81 0 -9 -10 -36 -22 -62 -21
-43 -23 -61 -23 -227 0 -161 3 -185 22 -230 11 -27 28 -71 38 -97 9 -27 20
-48 25 -48 5 0 19 -18 31 -40 13 -22 30 -40 38 -40 9 0 31 -9 49 -20 18 -11
50 -20 71 -20 l38 0 6 154 c4 129 9 160 26 194 12 23 21 58 21 79 1 21 7 49
15 63 8 14 15 43 15 65 0 22 9 60 20 84 11 24 20 53 20 66 0 12 9 51 21 86 11
35 23 87 26 114 6 48 56 165 71 165 6 0 33 72 28 77 -1 1 -15 -7 -31 -18z"/>
<path d="M9700 15163 c-18 -91 -22 -103 -31 -109 -5 -3 -9 -27 -9 -54 0 -27
-9 -73 -21 -102 -11 -28 -24 -74 -30 -101 -5 -28 -21 -65 -39 -86 -16 -21 -34
-60 -40 -87 -27 -126 -52 -214 -70 -249 -12 -24 -20 -59 -20 -90 0 -31 -8 -64
-20 -88 -11 -20 -20 -54 -20 -75 0 -21 -9 -63 -20 -95 -11 -31 -20 -62 -20
-69 0 -7 -7 -25 -14 -40 -8 -16 -18 -49 -22 -75 -3 -27 -15 -67 -25 -90 -11
-23 -19 -47 -19 -52 0 -6 -10 -27 -21 -48 -17 -30 -49 -127 -49 -148 0 -2 22
-8 49 -14 26 -6 73 -23 102 -39 30 -16 72 -35 94 -42 22 -7 59 -24 82 -37 23
-12 55 -23 70 -23 16 0 44 -8 63 -19 19 -10 50 -22 67 -25 18 -4 35 -12 38
-17 6 -9 141 -79 154 -79 12 0 51 85 51 110 0 38 56 197 99 280 10 19 22 48
26 65 3 16 22 51 40 76 23 32 41 77 59 147 14 55 26 109 26 119 0 10 6 30 14
44 7 14 16 50 20 80 7 57 33 147 47 165 5 6 15 43 24 84 8 40 22 87 30 104 15
32 31 115 45 224 4 35 15 71 24 81 16 17 14 20 -33 50 -27 18 -51 36 -53 40
-4 10 -94 71 -105 71 -5 0 -24 13 -43 29 -19 15 -53 34 -75 41 -22 7 -60 26
-85 43 -62 41 -127 77 -140 77 -10 0 -116 46 -162 71 -26 13 -26 14 -38 -48z"/>
<path d="M10720 14606 c0 -19 -5 -47 -11 -63 -6 -15 -15 -54 -19 -85 -5 -32
-16 -72 -25 -90 -8 -18 -20 -60 -24 -93 -5 -33 -16 -73 -25 -90 -9 -16 -16
-38 -16 -47 0 -10 -6 -37 -13 -60 -34 -107 -47 -159 -61 -238 -13 -72 -40
-149 -76 -210 -19 -33 -58 -127 -65 -154 -3 -17 -14 -41 -24 -55 -33 -48 -32
-58 8 -85 20 -14 42 -26 48 -26 6 0 35 -22 65 -48 29 -27 70 -57 91 -67 21
-10 48 -33 61 -51 31 -45 150 -132 200 -145 22 -6 58 -17 79 -24 45 -16 67
-11 67 16 0 10 4 19 9 19 5 0 13 15 16 33 4 17 17 46 29 62 13 17 30 44 38 60
49 95 102 194 118 220 10 17 23 48 30 70 7 22 17 45 21 51 5 6 13 44 18 83 5
40 14 77 19 84 5 7 12 46 15 87 7 80 34 171 68 229 12 20 27 56 34 81 7 25 15
52 19 60 7 17 -100 112 -170 150 -21 12 -46 29 -54 38 -8 9 -37 28 -65 42 -27
14 -68 39 -90 56 -22 17 -82 58 -132 92 -50 34 -93 65 -95 69 -5 13 -69 63
-79 63 -5 0 -9 -15 -9 -34z"/>
<path d="M6824 14344 c-15 -22 -16 -44 -11 -162 6 -122 1 -189 -19 -301 l-7
-34 84 7 c46 4 129 11 184 14 71 5 116 14 156 31 l57 24 4 58 c3 46 11 69 36
104 20 28 32 58 32 78 0 18 7 45 15 61 14 26 14 31 -1 48 -22 24 -60 23 -92
-3 -52 -41 -216 -7 -326 68 -59 40 -90 42 -112 7z"/>
<path d="M7596 13957 c-17 -35 -26 -68 -26 -101 0 -124 -47 -182 -222 -273
-24 -13 -300 -32 -475 -33 l-41 0 38 -77 c20 -43 39 -83 41 -88 2 -6 47 -74
99 -153 l94 -142 67 0 c37 0 86 7 110 15 27 10 120 21 236 29 105 7 198 17
205 23 7 6 28 13 47 17 45 8 94 47 115 89 14 31 15 56 6 218 -5 101 -11 220
-12 264 -3 92 -24 131 -81 159 -19 8 -56 31 -83 49 -92 63 -88 63 -118 4z"/>
<path d="M11647 13842 c-28 -58 -47 -131 -47 -178 0 -42 -56 -290 -69 -309 -4
-5 -13 -30 -20 -54 -7 -25 -28 -67 -47 -95 -19 -28 -34 -55 -34 -60 0 -5 -12
-25 -27 -45 -31 -40 -53 -78 -53 -93 0 -9 -25 -62 -60 -128 -11 -19 -19 -46
-20 -59 0 -36 -30 -161 -50 -216 -11 -27 -24 -79 -29 -113 -6 -35 -14 -69 -19
-75 -7 -11 -15 -41 -37 -140 -5 -25 -3 -27 17 -22 13 3 55 10 93 16 67 10 89
14 217 37 35 7 76 23 102 41 25 17 47 31 51 31 3 0 21 11 38 24 18 13 55 37
84 53 77 42 243 190 243 216 0 5 24 44 54 87 81 114 123 201 131 267 6 52 39
130 120 283 38 71 66 133 63 140 -4 9 -105 90 -113 90 -3 0 -32 17 -63 37 -31
21 -66 42 -77 49 -82 46 -103 59 -127 80 -16 12 -38 26 -50 30 -13 4 -47 22
-76 40 -29 19 -56 34 -61 34 -17 0 -93 45 -98 58 -8 20 -17 14 -36 -26z"/>
<path d="M8215 13348 c-16 -6 -42 -19 -56 -29 -28 -20 -99 -154 -99 -188 0
-12 -8 -24 -17 -28 -10 -3 -39 -21 -65 -40 -80 -58 -142 -73 -333 -81 -153 -7
-174 -10 -202 -30 -55 -39 -76 -111 -52 -180 13 -37 46 -58 326 -203 61 -31
129 -69 151 -84 46 -30 165 -74 202 -75 16 0 41 -14 63 -35 54 -51 76 -47 198
37 130 89 259 187 259 196 0 4 23 34 51 66 48 56 50 62 44 100 -3 23 -9 78
-11 124 -5 82 -6 83 -47 122 -121 115 -196 192 -232 238 -43 56 -104 102 -132
101 -10 0 -31 -5 -48 -11z"/>
<path d="M12647 13294 c-4 -4 -7 -19 -7 -34 0 -35 -18 -88 -42 -122 -10 -14
-18 -32 -18 -40 0 -18 -77 -255 -95 -295 -8 -17 -15 -34 -15 -37 0 -3 -17 -43
-39 -88 -21 -46 -44 -101 -51 -123 -7 -22 -19 -49 -25 -60 -20 -32 -25 -71
-12 -88 24 -31 108 -69 165 -74 32 -2 77 -11 102 -18 106 -30 303 -65 365 -65
20 0 53 -7 72 -16 19 -10 37 -13 42 -8 14 17 58 149 69 207 6 32 18 72 27 89
8 17 15 43 15 57 0 14 11 46 24 71 13 25 27 56 31 70 4 14 29 57 56 96 27 40
50 88 54 110 3 21 10 57 15 79 23 104 23 105 -13 105 -17 0 -45 7 -62 16 -40
22 -74 32 -180 54 -93 19 -215 53 -250 69 -11 5 -56 16 -100 24 -44 9 -89 19
-100 22 -11 3 -24 3 -28 -1z"/>
<path d="M13700 13003 c0 -27 -7 -77 -15 -113 -8 -36 -17 -81 -20 -100 -3 -19
-30 -73 -62 -120 -77 -116 -113 -189 -113 -228 0 -19 -6 -48 -14 -65 -8 -18
-19 -56 -26 -86 -6 -30 -16 -61 -22 -68 -6 -7 -8 -17 -4 -21 4 -4 110 -8 234
-10 183 -3 237 -1 277 12 28 8 79 19 115 23 63 8 65 9 68 38 2 17 8 35 13 41
5 7 22 49 38 95 16 46 36 98 45 114 9 17 16 37 16 45 0 8 20 85 45 170 25 85
45 176 45 202 l0 46 -67 7 c-66 7 -181 33 -237 55 -15 5 -92 10 -172 10 l-144
0 0 -47z"/>
<path d="M8755 12521 c-37 -22 -71 -59 -99 -105 -32 -54 -170 -193 -213 -215
-53 -28 -152 -126 -198 -197 -40 -61 -487 -509 -564 -565 -27 -19 -49 -46 -61
-75 -37 -85 -108 -179 -234 -309 -70 -71 -136 -146 -147 -165 l-21 -35 23 21
c13 11 40 28 60 37 20 9 42 24 50 33 16 20 124 94 137 94 5 0 37 18 71 40 34
22 77 46 95 54 19 8 36 19 40 24 3 6 32 16 64 22 31 6 80 18 108 26 28 8 58
14 68 14 9 0 36 8 59 19 23 10 63 28 89 40 26 11 60 21 75 21 16 0 56 7 88 16
33 9 78 20 99 26 115 27 168 88 179 208 7 67 44 186 78 246 10 19 21 53 25 77
7 49 67 250 95 320 21 51 78 260 86 315 6 38 -7 41 -52 13z"/>
<path d="M7911 10605 c-63 -37 -167 -121 -193 -158 -13 -18 -35 -43 -51 -56
-26 -22 -78 -90 -104 -138 -7 -13 -19 -33 -25 -45 -48 -85 -112 -177 -138
-196 -16 -13 -30 -27 -30 -33 0 -6 -15 -32 -34 -58 -19 -25 -43 -62 -54 -82
l-20 -36 44 -69 c64 -103 94 -139 144 -176 25 -17 81 -67 124 -110 44 -43 84
-78 91 -78 11 0 75 72 75 86 0 3 16 28 35 54 19 26 49 72 67 103 18 30 67 106
108 169 41 62 82 127 90 143 20 43 149 213 174 230 11 9 42 40 68 71 53 62 52
76 -8 109 -46 25 -221 208 -238 250 -10 23 -22 35 -35 35 -11 0 -25 2 -33 5
-7 3 -33 -6 -57 -20z"/>
<path d="M8576 10068 c-110 -113 -198 -213 -218 -246 -18 -31 -44 -75 -57 -97
-13 -22 -35 -54 -50 -70 -14 -17 -46 -62 -70 -100 -24 -39 -67 -106 -96 -150
-28 -44 -54 -87 -57 -95 -3 -8 -32 -51 -63 -95 l-56 -80 32 -25 c17 -14 56
-46 85 -72 30 -27 74 -57 98 -69 25 -11 47 -27 50 -35 3 -8 11 -14 19 -14 7 0
23 -13 34 -28 28 -38 182 -153 254 -190 l58 -30 48 71 c26 39 56 84 66 101 11
17 27 40 38 52 10 11 19 24 19 30 0 5 18 32 40 59 22 28 40 53 40 57 0 5 27
44 60 89 33 44 67 95 75 113 9 18 24 42 33 52 10 11 30 44 45 75 15 31 63 101
106 155 44 54 82 110 85 125 4 23 50 120 111 238 18 33 18 34 -6 52 -13 11
-47 30 -76 44 -28 14 -64 35 -80 48 -31 26 -157 107 -166 107 -3 0 -35 20 -71
45 -35 25 -82 52 -104 59 l-40 14 -186 -190z"/>
<path d="M9612 9778 c-46 -76 -130 -249 -136 -281 -4 -19 -23 -54 -44 -78 -57
-67 -133 -171 -143 -198 -12 -30 -384 -588 -415 -622 -28 -29 -32 -69 -8 -69
9 0 30 -10 47 -22 60 -43 129 -68 225 -82 24 -4 77 -22 118 -42 41 -19 114
-44 164 -54 73 -16 104 -30 172 -74 46 -29 92 -63 102 -75 36 -40 58 -28 98
57 20 42 41 96 48 120 10 41 40 102 61 128 5 7 23 55 40 107 25 82 82 208 109
242 5 6 11 33 15 60 10 69 61 267 81 312 9 21 22 56 29 78 8 22 27 76 44 121
l30 81 -92 23 c-50 12 -102 31 -116 41 -13 10 -28 19 -34 19 -6 0 -20 8 -31
19 -36 32 -319 221 -332 221 -7 0 -21 -15 -32 -32z"/>
<path d="M13620 9461 c-47 -15 -94 -33 -105 -39 -11 -6 -52 -16 -92 -22 -40
-7 -89 -21 -110 -32 -21 -11 -63 -28 -93 -37 -62 -19 -71 -37 -47 -93 8 -18
20 -53 27 -78 7 -25 16 -58 21 -74 5 -16 9 -46 9 -66 0 -46 34 -221 61 -311
10 -36 19 -91 19 -121 0 -31 11 -100 25 -154 27 -105 42 -182 55 -279 17 -125
29 -174 54 -221 14 -27 30 -61 35 -76 12 -33 40 -36 86 -12 17 9 72 22 124 30
52 8 100 19 106 24 7 6 48 16 92 24 114 20 244 90 365 197 17 16 52 31 86 38
84 18 135 45 215 111 12 10 -20 77 -74 158 -27 40 -49 76 -49 81 0 5 -16 33
-37 62 -95 140 -112 168 -119 194 -7 30 -69 143 -120 221 -19 28 -34 54 -34
58 0 4 -10 22 -22 39 -16 23 -21 42 -19 78 7 135 -93 275 -227 315 -68 21
-138 16 -232 -15z"/>
<path d="M12690 9240 c-48 -18 -80 -20 -266 -20 -233 0 -271 -6 -346 -58 -50
-34 -104 -111 -114 -160 -4 -18 -11 -35 -15 -38 -13 -7 -11 -341 1 -349 6 -3
10 -14 10 -23 0 -10 10 -36 22 -57 17 -31 23 -65 29 -150 27 -426 30 -489 20
-518 -6 -16 -11 -48 -11 -69 0 -37 -2 -39 -22 -31 -13 4 -163 6 -334 4 -292
-3 -317 -2 -410 18 -54 13 -122 29 -151 38 l-51 16 -5 66 c-2 36 -9 97 -16
134 -10 61 -9 74 10 129 22 67 22 128 0 423 -5 72 -10 135 -10 142 -1 6 -16
15 -33 18 -18 4 -46 17 -63 29 -44 31 -66 41 -141 66 -41 13 -92 40 -125 66
-31 24 -69 49 -85 56 -16 7 -55 30 -87 51 -56 38 -59 39 -72 21 -8 -11 -15
-28 -15 -39 0 -12 -9 -46 -20 -78 -11 -31 -20 -69 -20 -84 0 -42 -44 -177 -69
-212 -12 -16 -39 -85 -61 -151 -22 -66 -48 -133 -58 -148 -11 -15 -30 -58 -43
-97 -13 -38 -28 -77 -35 -85 -6 -8 -24 -41 -39 -73 -30 -63 -26 -79 22 -92 14
-3 51 -23 82 -43 31 -20 65 -41 76 -48 78 -44 103 -58 125 -73 40 -28 138 -59
234 -75 48 -9 93 -19 100 -24 6 -5 43 -12 83 -16 39 -3 84 -11 98 -16 15 -6
138 -10 288 -10 255 0 338 -7 422 -36 23 -8 56 -14 75 -14 19 0 48 -7 64 -15
41 -22 221 -21 261 2 19 10 71 19 145 25 288 22 305 24 340 43 31 17 66 20
310 26 168 3 286 10 303 17 50 21 54 74 17 192 -5 14 -13 57 -20 95 -6 39 -15
93 -20 120 -5 28 -14 77 -20 110 -5 33 -17 85 -26 115 -8 30 -19 91 -24 135
-5 44 -13 98 -19 120 -35 149 -48 224 -56 310 -3 33 -20 110 -36 170 -17 61
-34 121 -38 135 -6 22 -12 25 -56 27 -30 2 -71 -5 -105 -17z"/>
</g>
</svg>
