<?xml version="1.0" standalone="no"?>
<!DOCTYPE svg PUBLIC "-//W3C//DTD SVG 20010904//EN"
 "http://www.w3.org/TR/2001/REC-SVG-20010904/DTD/svg10.dtd">
<svg version="1.0" xmlns="http://www.w3.org/2000/svg" width="4666.7" height="4666.7" viewBox="0 0 3500 3500">
  <metadata>
    © 2021 Alex Van Buren and Nate Sackett. All rights reserved.
  </metadata>
  <g fill="rgba(0,0,0,.2)" stroke="none">
    <path d="M1280 133a321 321 0 00-26 42l-7 13-7 12-8 15-4 9a252 252 0 00-22 40l-4 8-3 6-4 8-6 11a235 235 0 01-18 36l-7 14a855 855 0 01-38 80l-6 13-6 13c0 3-3 8-5 11l-6 12-6 14-6 14-6 13-6 11-5 11-9 25-4 9-10 27-5 13-17 51a1067 1067 0 01-15 49l-2 12-3 15-3 13a242 242 0 001 63c0 5 2 13 5 17 5 8 31 18 56 22a198 198 0 0052 4l-6 8a1324 1324 0 00-123 169l-15 17c-17 18-25 27-36 43-10 14-19 23-37 39l-16 14a175 175 0 00-23 35 70 70 0 00-15 44c-2 32-3 34-8 47-8 19-24 64-27 77a531 531 0 01-79 152 1067 1067 0 01-65 96l-6 10a336 336 0 00-37 124c-1 18 3 35 12 51 8 16 15 23 40 43 15 12 21 21 25 35 1 7 2 26 0 30-2 7-13 53-13 58l4-2a115 115 0 0141-13 424 424 0 01167 10l105 34 10 4c43 17 85 43 164 100 82 61 116 78 168 85 10 2 73 2 87 0l8-1 1-4c8-36 16-56 28-68 7-7 11-10 20-14 9-5 20-6 32-5 17 2 26 7 38 20 14 16 22 26 32 47 8 15 9 17 13 19 8 4 13 1 20-12l8-10 16-14c13-12 29-21 41-26 7-2 10-2 19-2 10 0 11 0 36 8 26 7 44 5 82-10 13-5 54-25 81-39 32-17 44-20 75-20 22-1 33 1 46 5 19 7 30 16 38 32 6 11 8 20 8 38 0 25-4 49-18 92-13 42-23 64-76 175-15 28-17 34-16 37l1 23 2 31a562 562 0 016 62l1 10c0 4 0 7 2 9l2 10 3 10 2 8c0 6 3 15 5 21l4 8a175 175 0 0030 55c0 2 3 4 5 6a477 477 0 0126 22 195 195 0 0045 24l3 1 10 4a922 922 0 0043 12 312 312 0 0044 10l7 2a213 213 0 0128 7l9 3a389 389 0 0029 11l9 4 16 10c9 7 12 12 20 26 7 14 12 28 12 35l2 8 4 12 3 14 2 9 1 7 2 10c0 4 0 7 2 11l2 11 1 13 2 15v13a615 615 0 013 35l2 22v63a926 926 0 01-8 148c1 3 3 1 6-5l6-11 4-8 4-8 5-10 2-5 4-7 4-8 4-9 6-11a697 697 0 0035-70l5-9 1-2 2-5 2-4 2-4 8-15 7-14 1-2 1-3 3-5a153 153 0 016-12l2-4 2-4 5-10a640 640 0 0123-44l8-17 6-14 3-7a513 513 0 0034-73l6-12a309 309 0 0017-41l5-14a408 408 0 0019-54l5-16 3-8 1-5 1-2 1-4 1-3 1-3 1-5 2-8 2-8 3-10 2-14a269 269 0 003-93l-3-8c0-3-7-16-11-19-9-7-25-12-45-15a2613 2613 0 01-89-14c-10-1-23-6-32-11l-10-6-4-2c-1-2-5-4-7-5a153 153 0 01-48-58l-8-16 5-6a295 295 0 0031-49c1-2 5-6 15-11 17-11 33-23 50-39a557 557 0 0066-79l7-11c1-2 1-2 3 0l5 3 7 3 7 5 5 2 4 2 6 3 5 3 16 7 8 4a133 133 0 0030 11 171 171 0 00102 5c3 0 7-1 13-5 14-7 26-14 28-17l6-6 15-16 10-11 4-5 4-6 5-6 3-4 4-5c0-2 3-5 5-7l8-9 13-16a68 68 0 0155-22l27 4a139 139 0 0131 10l7 3a378 378 0 0191 57 436 436 0 0050 41l15 13a455 455 0 0142 40 461 461 0 0138 37 3581 3581 0 0169 71l-1-6-2-9-1-6-2-8-3-12c-1-4-2-11-4-14l-4-12c0-2-1-7-3-10l-3-11-5-18-5-21-2-7-4-12-4-12a496 496 0 01-14-48 538 538 0 00-25-77l-9-27-4-11-10-26-4-13-6-13a184 184 0 00-10-29l-7-16-6-17-4-12-10-20-9-21a1817 1817 0 00-56-105c-7-13-11-19-24-34-2-3-5-6-5-8l-9-11a147 147 0 00-28-25c-2-3-13-8-18-8-8-2-17 2-29 12l-11 8-11 9-10 9-10 8-7 5-9 8-12 11-16 12c-7 6-13 10-23 15-11 6-13 7-20 7l-12 3-9 1h-8c-4 1-30 0-43-2a398 398 0 00-41-4l-10-1c-10 0-12-1-16-7l-3-5 3-18c11-54 14-85 14-140a535 535 0 00-7-117c0 4 3 4 9 1 8-3 15-6 22-7l27-11 9-3a140 140 0 0037-20 110 110 0 0036-31l4-4 5-7 4-5 2-3 2-5 5-9 3-9 3-10 4-12c3-11 3-32 0-62a196 196 0 013-76 99 99 0 0113-34l4-6 4-5 8-8a121 121 0 0140-21l15-3 12-3 9-2 11-2 9-2c2 1 5 0 8-1l8-1h6l8-1 9-1 13-1 15-2 24-2 30-1a4145 4145 0 01181-3l-1-5-4-9-3-9-4-9-5-12c-4-7-4-7-12-12l-10-5-9-5-13-6a156 156 0 00-17-10l-13-6-11-6-8-4-13-7a1245 1245 0 00-68-36l-15-8-9-4-24-12-12-7-14-8-8-5-4-1-23-11c-5-2-10-5-14-9l-5-3-16-8a129 129 0 00-20-9 250 250 0 00-48-22l-13-5-20-8-21-7-10-3a532 532 0 00-39-9 302 302 0 00-95-2l-11 1-25 13-24 13-15 14a137 137 0 00-18 21l-3 5-4 7c-4 8-12 31-15 47l-1 45v17a357 357 0 00-3 31 305 305 0 01-16 44l-6 9-7 7c-5 3-34 18-36 17l-13-15c-36-45-73-86-125-138l-26-26 2-3 2-4 6-13 5-10 6-9 1-3 1-4 7-13 3-5 2-4 2-5 6-14c10-30 11-39 11-54 0-20-1-25-8-40-10-22-15-30-23-37l-10-13-8-9-9-8-6-8-6-7-7-8-9-8-9-9-7-8-6-7-6-7-7-10c-9-8-11-10-14-18l-8-11-3-6-3-8c-2-4-2-7-3-14l1-13a237 237 0 0115-41l3-5 3-5 3-5 4-5 4-6 4-5 3-4 4-5c1-4 7-10 13-17l6-7 6-8a3119 3119 0 0051-50l7-7 7-6 9-9 12-10 4-4 5-5 11-10a1357 1357 0 0174-68l6-6c1-2 4-5 7-6l7-7 3-4 2-3-14-7-13-7-4 2-11 4c-4 0-9 2-10 3l-27 8c-4 0-10 2-14 4-4 3-9 4-16 6-7 1-11 2-16 5l-14 6c-4 0-12 3-18 6-8 3-11 4-15 4-6 0-9 1-24 8-7 4-11 5-17 6-4 0-10 2-17 5l-13 5-27 11c-3 2-7 4-10 4-12 2-19 5-28 9l-14 6c-10 1-15 3-28 9l-16 6-30 14a126 126 0 01-33 11 662 662 0 01-77 38 1073 1073 0 01-59 31l-14 11-12 10c-9 4-23 13-27 17l-9 7c-6 3-23 19-23 21l-8 10-10 12-9 29c0 7 9 26 17 37l9 12 10 14c6 5 15 17 13 17l-16-4-70-14c-71-11-94-13-154-12-44 0-68 1-103 6l-20 2-14-4a2032 2032 0 00-94-30 370 370 0 01-84-35c-10-6-33-29-39-39-11-17-16-31-18-40 0-3-1-9-3-12l-3-16-2-11c-3-8-7-55-7-89a1204 1204 0 017-126l2-15a3156 3156 0 0111-92c1-7 0-6-7 3zm944 938c8 4 9 14 3 22-4 7-8 8-18 8l-12-1a310 310 0 00-85 10 187 187 0 01-44 10l-15 5c-13 4-35 13-50 21-51 27-82 58-89 88-2 11-1 29 2 43 2 10 11 36 14 43l5 11 12 28a489 489 0 0153 202c-3 28-12 45-43 87-11 16-12 18-19 32-15 28-16 50-2 69 11 17 31 33 84 69 46 31 61 43 82 64 15 14 27 30 40 51l13 19c3 3 7 9 9 14 16 29 38 47 78 63 13 5 16 7 18 12 3 6 1 15-6 19-5 3-11 2-27-5-49-21-65-35-98-86a332 332 0 00-119-121c-48-32-69-48-86-65-12-14-19-24-25-40-2-7-2-9-2-23 0-13 0-16 2-24 7-24 18-45 41-75 13-18 19-28 25-41 7-18 7-45-2-82l-18-66c-5-15-9-25-24-57-25-55-33-79-37-106-2-12-1-35 2-45 11-41 47-77 108-107a467 467 0 01230-46zm-1106 52c8 2 16 8 22 15 9 12 22 42 26 64 4 17 8 56 8 72 0 12 1 14 6 14 4 0 13-2 16-4 5-2 8-6 13-15a174 174 0 0149-61c5-3 17-4 22-2 6 2 14 8 25 19 9 9 12 13 15 19 3 7 4 8 4 17 0 11-2 18-8 33-7 18-16 28-33 42l-18 14a382 382 0 00-35 51c-11 16-14 23-20 47l-6 22c-5 13-6 20-6 39 0 16 0 18-2 20-1 2-2 2-4 2-4-1-4-4-4-28l1-20 4-12 9-30c4-20 7-27 18-43 36-55 36-56 56-70 15-12 21-18 28-33 5-9 6-14 8-24 2-7 2-8 0-15-2-10-6-16-18-28-11-10-15-12-21-12s-9 2-18 9c-12 9-26 27-36 47-7 12-10 16-15 19-4 3-15 7-21 7-3 0-4 1-13 10-7 8-10 9-33 9-21 1-38 3-46 7-8 3-17 10-29 22-24 24-40 49-47 70-8 26-20 53-30 66-7 9-14 11-52 17-49 7-66 6-74-2l-6-11a226 226 0 00-24-39l-1-1-4-8c-6-12-6-19-2-34l7-17 16-19c23-25 24-26 23-38-3-27-2-37 4-61 20-76 50-108 123-130 21-6 57-14 77-18 12-2 37-1 46 2zm464 82a618 618 0 01171 74 283 283 0 0170 79c30 48 33 54 34 68 0 11-1 18-6 28l-6 17-13 33-13 30c-32 76-41 92-65 112-19 16-32 23-52 28-11 2-36 2-56-1-31-4-88-17-99-22a1234 1234 0 01-150-86l-13-10c-21-16-36-34-44-54-9-21-8-46 4-70 6-12 16-28 23-35l36-29c13-9 22-18 26-24l7-18a1143 1143 0 0110-29c10-32 36-67 57-78a154 154 0 0153-15l26 2zm-474 128c6 3 14 13 33 39 27 38 32 47 36 68l1 5c2 10 3 30 4 54a150 150 0 0017 78c20 52 19 51 19 85s-3 58-9 76c-3 10-10 24-15 32-16 24-55 53-81 59-16 4-36 1-53-8-5-3-7-4-10-9-5-9-23-27-32-32-8-5-20-9-28-10-8 0-9 1-11 9-4 21-12 30-27 30l-8-1c-12-4-26-23-29-38l-1-39c1-30 1-34 3-42 5-19 21-63 31-82 6-13 13-30 22-58 8-26 17-47 28-66 12-23 20-41 27-64 4-15 12-28 26-45 14-18 29-33 40-39 5-3 11-4 17-1zm-248 239l5 5c3 7 4 33 2 37l-3 5c-3 3-10 3-13 0l-8-4c-8-3-10-6-11-14 0-5 0-6 3-13l9-13c7-7 10-8 16-3zm585 132c4 3 10 15 11 19 1 6-6 31-10 34h-14c-5-2-11-7-13-12-2-3-2-5-2-12 1-7 1-10 4-15 5-9 8-13 13-15 5-3 9-3 11 0z"/>
    <path d="M773 1962h-4l-5 16c-11 35-16 56-16 68v7l25 10 26 9 3-8 5-17 24-83-6-1c-9-1-47-2-52-1zM737 1966c-22 5-35 13-43 26-5 7-5 12-2 28 2 17 7 30 15 37 5 4 7 5 11 5 7 0 9-4 13-24a394 394 0 0119-68l2-6h-3l-13 2zM854 1977a2214 2214 0 00-28 103 1087 1087 0 0076 28c1-2 38-118 37-119a525 525 0 00-80-22l-5 10zM967 2001l-3 10-12 42-14 50-5 17 11 6a855 855 0 0157 26l39-124a651 651 0 00-72-30l-1 3z"/>
    <path d="M679 2037c-5 12-9 31-9 42 0 13 5 46 7 48 2 4 3 4 5 3l6-1 8-1 16-3 17-2c6-1 9-4 9-6-1-4 1-14 5-22 6-13 9-21 8-23s-8-6-13-7l-8 3c-5 3-6 3-13 3-8 0-12-2-17-7-4-3-9-13-12-22-4-8-7-10-9-5zM1070 2045a9599 9599 0 01-37 118c0 2 4 5 11 9 9 7 53 26 56 26a4263 4263 0 0040-104 333 333 0 00-70-48zM1974 2068c-16 2-27 6-46 16l-79 39-39 13c-20 6-43 6-63 1a292 292 0 01-30-8c-7-1-13 0-22 5-11 5-38 28-41 34a773 773 0 01-23 178 715 715 0 01-189 317 204 204 0 01-52 43c-36 21-89 36-148 40-29 3-72 2-104-1a741 741 0 01-345-143c-8-7-37-36-50-51l-15-16-14-21c-3-6-3-8-5-17-1-6-1-22 1-31 6-41 7-45 2-45-3 0-22 16-31 26-6 6-23 35-26 45a1316 1316 0 01-40 78l-17 36c-23 48-43 96-54 132-12 38-18 66-19 100-1 37 5 72 21 120 12 37 25 59 51 81l17 15c32 22 73 35 165 52 22 4 81 3 170-1 205-12 324-43 548-145 32-15 50-21 97-31l86-22c58-17 98-44 124-82 30-44 49-111 64-220l4-28 3-19c3-23 10-41 45-115l101-212c9-24 23-72 26-95 3-19 2-38-2-47-5-9-16-16-29-19-9-2-31-3-43-2z"/>
    <path d="M760 2101c-1 1-3 5-3 11-3 15-5 20-12 23-6 3-24 6-49 6-13 1-16 2-14 6 0 1 6 12 14 23l13 20h9l41-3c15-2 26-7 31-12 5-7 5-19 0-47-2-13-3-15-12-19l-10-7c-4-4-6-4-8-1zM1166 2112l-38 106-11 29-7 22 2 4c2 2 9 1 28-2 31-7 47-16 61-37a278 278 0 0030-73l2-4a827 827 0 00-48-33 431 431 0 00-20-12zM821 2165c-5 2-9 7-11 13-4 11-9 16-20 20-6 2-25 5-35 5-8 0-13 2-15 7-3 4-2 12 0 15 1 2 15 10 39 22 30 17 37 20 39 19 3 0 47-34 50-38 1-2 1-6-1-10-3-7-31-48-35-51s-5-3-11-2zM1249 2215l-15 43c1 3 7 6 14 7a1194 1194 0 0161 15l3-2 27-80-11-2c-20-4-37-10-58-19l-5-3-16 41zM1393 2201l-28 1-11 37-11 38c0 4 5 4 35 4 30-1 33-2 33-6l1-3a687 687 0 0024-71l-7-1-36 1zM875 2245a2277 2277 0 00-152 162c0 2 2 4 5 4l12-6a419 419 0 01112-47l4-16a1126 1126 0 0126-96c-1-3-3-4-7-2zM770 2473l-29 27c0 3 5 10 20 26l15 17 4 2a939 939 0 0050-62c1-1-27-33-30-36-1-1-7 4-30 25zM867 2478a132 132 0 00-10 13c-2 1-57 72-57 74 0 5 60 52 67 52l4-3c3-4 57-91 57-93l-16-13-29-23-13-11-3 4zM923 2582l-30 49a395 395 0 0088 41 4522 4522 0 0045-110l-11-4c-20-5-53-17-61-23-2-1-3 0-31 47zM1381 2548c-19 12-54 32-62 35l5 31 12 54 6 26c1 1 1 1 7-1a195 195 0 0081-63 1856 1856 0 00-39-88l-11 6zM1278 2596l-13 2-15 2-34 2-22 1v5l7 108 1 2h14a499 499 0 0095-14l-20-105c-1-6-1-6-13-3zM1042 2597c-3 3-31 81-31 85 1 2 1 3 13 7a669 669 0 0081 19c2-4 3-81 1-85-1-1-55-27-60-28-2 0-3 0-4 2z"/>
  </g>
</svg>
